<?xml version="1.0" encoding="utf-8"?>
<!-- Generator: Adobe Illustrator 16.0.0, SVG Export Plug-In . SVG Version: 6.00 Build 0)  -->
<!DOCTYPE svg PUBLIC "-//W3C//DTD SVG 1.1//EN" "http://www.w3.org/Graphics/SVG/1.1/DTD/svg11.dtd">
<svg version="1.1" id="Layer_1" xmlns="http://www.w3.org/2000/svg" xmlns:xlink="http://www.w3.org/1999/xlink" x="0px" y="0px"
	 width="612px" height="792px" viewBox="0 0 612 792" enable-background="new 0 0 612 792" xml:space="preserve">
<g>
	<path fill-rule="evenodd" clip-rule="evenodd" fill="#FFFFFF" d="M498.078,114.311c-7.169-4.331-11.022-3.601-14.502,3.265
		c-1.582,3.123-3.891,3.465-6.604,2.757c-2.719-0.709-5.45-1.642-7.931-2.945c-10.35-5.433-19.827-4.317-28.687,3.239
		c-1.86,1.586-3.8,3.318-6.454,2.812c-1.998-1.458-1.233-4.354-3.618-5.684c-2.94-0.223-5.58,1.221-8.039,2.876
		c-3.999,2.693-7.921,5.513-11.755,8.437c-4.138,3.156-8.104,4.703-13.732,3.157c-14.596-4.011-29.437-7.113-44.567-8.468
		c-5.479-0.49-11.156-1.26-16.2,1.45c-9.22,4.953-18.277,6.252-27.57,0.417c-0.371-0.233-0.965-0.111-1.454-0.154
		c-1.274-0.395-2.549-0.79-3.822-1.185c-3.802-1.182-7.609-1.009-11.417-0.034c-11.7,1.817-23.797,2.004-34.97,6.023
		c-12.206,4.391-22.347,3.093-31.658-6.299c-3.132-3.159-7.334-5.694-12.48-5.747c-0.869,2.1-1.668,4.031-2.546,6.154
		c-3.534-0.322-6.164-2.048-8.557-4.082c-8.019-6.813-16.598-7.672-25.94-2.926c-3.096,1.573-6.268,3.118-9.776,3.659
		c-2.643,0.407-5.075,0.199-6.217-2.734c-1.355-3.481-3.136-6.244-7.55-5.831c-4.604,0.431-8.193,1.982-10.223,6.627
		c-3.701,8.47-3.37,16.694,0.979,25.035c-8.707,5.16-8.669,12.856-6.376,21.11c0.89,3.2,1.952,6.375,3.218,9.444
		c3.852,9.341,7.403,18.569-3.946,25.308c2.541,4.526,6.153,6.006,9.965,6.899c2.69,6.767,4.091,13.6,5.291,20.484
		c0.02,1.49-0.098,2.995,0.079,4.465c3.317,27.548,0.814,54.828-3.997,81.96c-1.508,8.506-4.016,16.831-5.756,25.302
		c-2.157,10.504,2.408,19.483,6.809,28.534c3.041,6.252,1.866,9.545-4.481,12.401c-4.226,1.901-5.043,3.966-2.729,8.035
		c6.43,11.298,9.771,23.647,11.227,36.477c2.167,19.09,0.711,38.271,1.103,57.408c0.347,16.979-2.459,33.167-11.552,47.837
		c-2.782,4.488-3.4,9.298-2.627,14.403c0.838,5.541-0.245,10.297-4.203,14.724c-5.161,5.771-5.153,11.818-0.433,18.217
		c2.137,2.896,2.915,5.808,2.715,9.271c-0.421,7.311-2.383,14.452-2.233,21.826c0.216,10.616,5.601,16.736,16.153,17.976
		c3.579,0.42,7.208,0.729,10.49-0.938c2.194,2.726,4.026,5.315,6.173,7.608c5.544,5.92,13.13,5.977,18.869,0.148
		c1.616-1.642,3.047-3.546,4.212-5.534c2.996-5.109,7.169-7.128,13.009-5.72c6.485,1.564,12.542,0.514,18.074-3.301
		c4.316-2.976,9.01-4.813,14.288-5.402c4.44-0.496,8.801-1.667,13.232-2.284c15.642-2.177,31.077-2.898,45.915,4.432
		c9.395,4.641,18.677,5.036,26.104-3.992c9.846,7.702,12.191,9.646,28.142,3.1c1.691-0.694,3.368-1.423,5.075-2.075
		c14.436-5.517,29.158-3.597,43.846-1.546c9.203,1.285,18.329,2.709,26.272,8.382c4.067,2.906,9.131,2.742,14.005,1.823
		c8.05-1.518,10.421-0.495,15.027,6.406c0.922,1.381,1.848,2.784,2.956,4.011c5.744,6.357,12.571,6.345,18.62,0.289
		c2.487-2.489,3.401-6.15,6.389-8.176c11.787,6.129,25.271-1.991,25.47-15.198c0.117-7.693-1.776-15.162-2.303-22.777
		c0.002-0.761,0.006-1.521,0.008-2.28c-0.104-2.538,1.469-4.324,2.783-6.23c4.682-6.791,4.694-12.016-0.695-18.037
		c-3.816-4.263-5.016-9.032-3.847-14.298c1.125-5.065,0.33-9.637-2.342-13.849c-9.758-15.383-12.005-32.499-11.941-50.204
		c0.076-21.096-0.588-42.214,2.154-63.219c2.095-11.875,6.444-22.947,12.18-33.011c-0.599-1.792-1.525-2.358-2.621-2.907
		c-8.781-4.397-9.625-6.823-5.561-15.667c0.556-1.209,1.069-2.454,1.768-3.58c5.423-8.764,6.211-18.239,3.653-27.919
		c-8.235-31.164-11.334-62.802-9.242-94.944c0.716-10.985,2.927-21.697,6.633-32.167c3.985-1.271,8.133-2.252,9.675-7.322
		c-8.301-5.551-8.724-12.983-4.931-21.424c1.428-3.178,2.531-6.513,3.619-9.829c3.053-9.296,4.59-18.342-5.155-24.867
		c0.747-1.6,1.383-2.766,1.853-3.996C506.213,130.956,504.022,119.414,498.078,114.311z"/>
	<path fill-rule="evenodd" clip-rule="evenodd" fill="#F4ECE1" d="M504.887,583.186c-0.002,0.761-0.006,1.521-0.008,2.28
		c-1.63,2.272-1.033,4.915-0.637,7.228c0.965,5.639,0.828,11.271,0.656,16.913c-0.336,10.955-12.377,15.351-18.954,11.706
		c-0.756-1.944-1.768-3.604-4.384-3.789c-3.568,1.883-5.245,5.668-7.682,8.747c-6.107,7.72-11.033,7.713-16.136-0.745
		c-4.686-7.764-10.979-10.645-19.743-8.74c-4.527,0.984-8.978,0.736-12.913-2.102c-5.548-4.001-11.88-5.808-18.514-6.92
		c-14.941-2.507-29.846-5.056-45.093-2.492c-7.497,1.261-13.963,5.282-21.175,7.293c-6.109,1.703-10.723-0.095-14.505-4.917
		c-1.188-1.516-1.738-3.686-4.03-4.228c-1.277,0.117-1.97,0.998-2.699,1.948c-6.736,8.773-11.137,10.358-20.893,5.658
		c-20.191-9.726-40.735-7.246-61.465-2.829c-5.787,0.213-11.093,1.877-16,4.994c-3.968,2.521-8.188,5.064-13.079,3.812
		c-10.48-2.686-17.931,0.454-23.544,9.872c-3.814,6.398-8.936,6.014-13.586,0.042c-2.533-3.252-4.135-7.239-7.426-9.71
		c-1.966-0.311-3.513,0.236-4.932,1.167c-7.119,4.672-16.564,0.019-17.102-8.413c-0.385-6.044,0.708-11.95,1.566-17.879
		c0.975-6.738,1.091-13.156-3.695-18.919c-3.305-3.979-2.127-8.229,1.251-11.701c4.764-4.898,6-10.919,4.675-17.121
		c-1.08-5.053,0.178-9.148,2.393-13.348c3.803-7.212,7.622-14.378,9.138-22.565c2.66-14.361,2.472-28.853,2.337-43.337
		c-0.162-17.307,0.156-34.655-3.514-51.739c-2.135-9.938-5.938-19.265-10.412-28.231c10.932-7.86,11.753-11.435,5.622-23.138
		c-0.232-0.443-0.456-0.892-0.715-1.318c-4.456-7.336-5.673-15.252-3.869-23.566c3.773-17.391,7.591-34.73,8.92-52.574
		c1.765-23.695,2.245-47.245-3.747-70.478c-1.341-5.197-1.998-11.11-9.28-11.745c-0.529-0.046-0.998-0.79-2.013-1.649
		c8.728-6.834,7.437-15.212,3.88-23.972c-1.438-3.542-2.69-7.176-3.792-10.838c-3.177-10.558-2.439-12.891,5.827-19.612
		c0.567-1.982,0.648-3.865-0.503-5.758c-2.67-4.393-2.837-9.367-1.858-14.073c1.344-6.463,3.366-11.828,11.219-9.757
		c5.547,9.25,8.09,10.102,18.075,6.056c0.617-0.25,1.263-0.458,1.833-0.792c9.446-5.542,17.983-4.696,26.657,2.338
		c7.152,5.801,9.191,5.099,14.914-1.78c6.74,3.261,12.21,8.515,18.528,12.478c3.06,1.918,5.944,2.768,9.826,1.777
		c15.766-4.021,31.51-8.226,47.666-10.505c3.663,0.021,7.325,0.043,10.988,0.064c1.122,0.961,2.454,1.225,3.882,1.169
		c2.58,1.105,5.256,2.027,7.715,3.355c4.77,2.575,9.246,2.463,14.133,0.006c6.898-3.469,14.175-5.377,22.138-4.619
		c14.431,1.375,28.718,3.751,42.602,7.675c8.766,2.477,15.452,0.57,22.029-4.969c3.992-3.363,8.19-6.64,13.394-8.21
		c1.525,1.967,1.135,4.654,3.611,5.843c4.96,0.518,8.552-2.729,12.247-5.45c5.964-4.393,12.171-5.939,19.16-2.697
		c1.645,0.763,3.39,1.309,5.089,1.955c2.3,0.946,4.526,2.184,6.913,2.773c4.071,1.004,8.048,1.106,10.086-3.726
		c0.991-2.351,1.998-4.62,5.266-4.333c3.208,0.282,5.777,1.415,7.271,4.442c3.531,7.154,4.124,14.385,0.067,21.476
		c-1.245,2.177-2.015,4.335,0.24,5.604c7.98,4.487,7.035,11.361,5.122,18.329c-1.626,5.921-3.909,11.661-5.826,17.506
		c-1.995,6.086-0.845,11.47,3.757,16.051c0.789,0.785,1.914,1.402,1.909,3.257c-1.008,0.612-2.197,1.903-3.489,2.016
		c-3.97,0.345-5.026,2.978-6.011,6.183c-3.327,10.839-5.834,21.918-6.349,33.179c-1.194,26.175-0.031,52.331,6.356,77.831
		c4.045,16.146,6.203,31.403-3.184,46.632c-3.796,6.161-1.28,11.202,5.071,15.087c1.096,0.67,2.617,0.794,3.286,2.513
		c-7.854,14.546-11.859,30.365-12.673,47.031c-1.633,13.475-0.87,27.005-0.811,40.512c0.021,4.559-0.682,9.226,0.906,13.702
		c0.043,1.955,0.085,3.909,0.128,5.863c-0.462,13.729,3.861,26.134,10.817,37.688c3.015,5.008,3.822,10.166,2.771,15.729
		c-0.966,5.116,0.531,9.499,3.728,13.396c5.822,7.101,6.021,9.555,1.423,17.851C504.667,578.867,502.781,580.778,504.887,583.186z"
		/>
	<path fill-rule="evenodd" clip-rule="evenodd" fill="#743E8A" d="M306.846,127.448c-1.429,0.056-2.76-0.208-3.882-1.169
		c-3.654-1.524-7.317-1.442-10.988-0.064c-16.156,2.279-31.9,6.483-47.666,10.505c-3.882,0.99-6.766,0.141-9.826-1.777
		c-6.318-3.963-11.789-9.217-18.528-12.478c-5.723,6.879-7.762,7.581-14.914,1.78c-8.673-7.035-17.21-7.88-26.657-2.338
		c-0.57,0.334-1.215,0.542-1.833,0.792c-9.985,4.046-12.528,3.193-18.075-6.056c-7.854-2.071-9.875,3.294-11.219,9.757
		c-0.979,4.706-0.812,9.68,1.858,14.073c1.151,1.893,1.07,3.776,0.503,5.758c-8.266,6.721-9.004,9.054-5.827,19.612
		c1.102,3.663,2.353,7.296,3.792,10.838c3.556,8.759,4.847,17.137-3.88,23.972c1.016,0.859,1.484,1.604,2.013,1.649
		c7.283,0.634,7.939,6.548,9.28,11.745c5.992,23.233,5.512,46.783,3.747,70.478c-1.33,17.844-5.147,35.183-8.92,52.574
		c-1.804,8.313-0.587,16.229,3.869,23.566c0.259,0.427,0.483,0.875,0.715,1.318c6.132,11.703,5.311,15.278-5.622,23.138
		c4.474,8.966,8.277,18.292,10.412,28.231c3.67,17.084,3.353,34.433,3.514,51.739c0.135,14.484,0.323,28.976-2.337,43.337
		c-1.517,8.188-5.335,15.354-9.138,22.565c-2.215,4.199-3.473,8.295-2.393,13.348c1.325,6.202,0.089,12.223-4.675,17.121
		c-3.379,3.473-4.557,7.722-1.251,11.701c4.786,5.763,4.669,12.181,3.695,18.919c-0.857,5.929-1.951,11.835-1.566,17.879
		c0.537,8.432,9.982,13.085,17.102,8.413c1.419-0.931,2.966-1.478,4.932-1.167c3.291,2.471,4.893,6.458,7.426,9.71
		c4.65,5.972,9.772,6.356,13.586-0.042c5.613-9.418,13.064-12.558,23.544-9.872c4.891,1.253,9.111-1.29,13.079-3.812
		c4.907-3.117,10.213-4.781,16-4.993c1.078,0.257,2.352-0.118,3.167,0.985c-6.895,1.051-13.682,2.187-19.659,6.359
		c-4.611,3.218-9.708,4.471-15.603,3.07c-7.09-1.684-13.212,0.212-16.791,7.307c-0.447,0.886-1.03,1.716-1.636,2.505
		c-5.805,7.548-12.705,7.387-18.338-0.296c-2.124-2.897-3.452-6.456-6.625-8.558c-1.876,0.793-2.206,3.004-4.12,3.626
		c-6.009,1.955-15.997-3.065-18.126-9.219c-2.295-6.633-0.182-13.146,0.504-19.701c0.725-6.922,1.713-13.665-2.957-20.064
		c-3.737-5.12-3.074-9.481,1.195-13.983c4.266-4.499,5.524-9.453,4.45-15.488c-0.884-4.968-0.257-9.765,2.585-14.359
		c7.995-12.924,11.073-27.284,11.189-42.321c0.115-14.993,0.262-29.994-0.083-44.98c-0.247-10.774-1.332-21.501-3.879-32.063
		c-2.306-9.563-6.402-18.389-10.702-27.304c1.526-0.788,2.707-1.373,3.865-2c5.891-3.188,7.485-7.404,5.114-13.72
		c-0.759-2.021-1.401-4.184-2.614-5.919c-5.818-8.318-5.83-17.57-4.029-26.851c2.811-14.482,7.007-28.677,8.137-43.504
		c1.113-14.596,2.959-29.185,1.933-43.819c-0.48-6.843-0.033-13.935-2.75-20.525c-1.2-6.885-2.601-13.718-5.291-20.484
		c-3.812-0.894-7.424-2.374-9.965-6.899c11.349-6.739,7.797-15.967,3.946-25.308c-1.266-3.07-2.328-6.244-3.218-9.444
		c-2.293-8.253-2.331-15.95,6.376-21.11c-4.349-8.34-4.68-16.564-0.979-25.035c2.03-4.645,5.619-6.196,10.223-6.627
		c4.414-0.413,6.194,2.35,7.55,5.831c1.143,2.934,3.575,3.142,6.217,2.734c3.508-0.541,6.68-2.085,9.776-3.659
		c9.342-4.746,17.921-3.887,25.94,2.926c2.393,2.033,5.023,3.76,8.557,4.082c0.878-2.123,1.677-4.054,2.546-6.154
		c5.146,0.053,9.349,2.588,12.48,5.747c9.311,9.392,19.452,10.69,31.658,6.299c11.173-4.02,23.271-4.206,34.971-6.023
		c3.806,0.011,7.611,0.022,11.417,0.033c1.273,0.395,2.548,0.79,3.822,1.185C307.119,126.14,307.986,126.854,306.846,127.448z"/>
	<path fill-rule="evenodd" clip-rule="evenodd" fill="#A07AAE" d="M150.94,227.375c2.716,6.59,2.269,13.682,2.75,20.525
		c1.027,14.634-0.819,29.223-1.933,43.819c-1.13,14.827-5.326,29.022-8.137,43.504c-1.801,9.281-1.79,18.533,4.029,26.851
		c1.213,1.735,1.855,3.898,2.614,5.919c2.371,6.316,0.777,10.532-5.114,13.72c-1.158,0.627-2.339,1.212-3.865,2
		c4.299,8.915,8.396,17.741,10.702,27.304c2.548,10.562,3.632,21.288,3.879,32.063c0.345,14.986,0.198,29.987,0.083,44.98
		c-0.116,15.037-3.194,29.397-11.189,42.321c-2.842,4.595-3.47,9.392-2.585,14.359c1.074,6.035-0.184,10.989-4.45,15.488
		c-4.27,4.502-4.932,8.863-1.195,13.983c4.67,6.399,3.682,13.143,2.957,20.064c-0.687,6.556-2.8,13.068-0.504,19.701
		c2.129,6.153,12.117,11.174,18.126,9.219c1.915-0.622,2.244-2.833,4.12-3.626c3.173,2.102,4.501,5.66,6.625,8.558
		c5.633,7.683,12.534,7.844,18.338,0.296c0.606-0.789,1.189-1.619,1.636-2.505c3.579-7.095,9.701-8.99,16.791-7.307
		c5.896,1.4,10.992,0.147,15.603-3.07c5.978-4.173,12.765-5.309,19.66-6.359c0.5,0.01,1.018,0.113,1.494,0.013
		c20.226-4.256,40.078-4.692,59.275,4.755c6.364,3.132,12.321,1.533,17.125-3.82c1.279-1.425,2.598-2.815,3.914-4.24
		c8.282,10.476,12.836,11.593,25.098,6.544c5.046-2.078,10.031-4.243,15.515-5.193c12.503-2.168,24.783-0.347,37.12,1.356
		c9.597,1.324,18.931,3.192,27.077,8.928c3.681,2.592,7.946,2.124,12.064,1.376c8.632-1.567,11.834-0.253,16.783,7.111
		c1.108,1.649,2.258,3.311,3.622,4.742c4.505,4.723,9.376,4.905,13.839,0.197c3.064-3.234,5.613-6.955,8.43-10.43
		c0.264-0.327,0.795-0.438,1.221-0.659c0.813,1.118,1.558,2.144,2.587,3.56c0.426-1,0.662-1.556,0.898-2.11
		c6.577,3.645,18.618-0.751,18.954-11.706c0.172-5.642,0.309-11.274-0.656-16.913c-0.396-2.313-0.993-4.955,0.637-7.228
		c0.526,7.617,2.42,15.086,2.303,22.779c-0.199,13.207-13.683,21.327-25.47,15.198c-2.987,2.025-3.901,5.687-6.389,8.176
		c-6.049,6.056-12.876,6.068-18.62-0.289c-1.108-1.227-2.034-2.63-2.956-4.011c-4.606-6.901-6.978-7.924-15.027-6.406
		c-4.874,0.919-9.938,1.083-14.005-1.823c-7.943-5.673-17.069-7.097-26.272-8.382c-14.688-2.051-29.41-3.971-43.846,1.546
		c-1.707,0.652-3.384,1.381-5.075,2.075c-15.95,6.547-18.296,4.603-28.142-3.1c-7.427,9.028-16.709,8.633-26.104,3.992
		c-14.838-7.33-30.273-6.608-45.915-4.432c-4.431,0.617-8.792,1.788-13.232,2.284c-5.278,0.589-9.972,2.427-14.288,5.402
		c-5.531,3.814-11.588,4.865-18.074,3.301c-5.839-1.408-10.013,0.61-13.009,5.72c-1.165,1.988-2.597,3.893-4.212,5.534
		c-5.739,5.828-13.325,5.771-18.869-0.148c-2.147-2.293-3.979-4.883-6.173-7.608c-3.282,1.666-6.911,1.357-10.49,0.938
		c-10.552-1.239-15.937-7.359-16.153-17.976c-0.149-7.374,1.812-14.516,2.233-21.826c0.2-3.464-0.578-6.375-2.715-9.271
		c-4.72-6.398-4.728-12.445,0.433-18.217c3.958-4.427,5.042-9.183,4.203-14.724c-0.773-5.105-0.155-9.915,2.627-14.403
		c9.092-14.67,11.899-30.858,11.552-47.837c-0.392-19.137,1.064-38.318-1.103-57.408c-1.456-12.829-4.797-25.179-11.227-36.477
		c-2.315-4.069-1.498-6.134,2.729-8.035c6.347-2.856,7.522-6.149,4.481-12.401c-4.401-9.051-8.965-18.03-6.809-28.534
		c1.74-8.471,4.248-16.796,5.756-25.302c4.811-27.132,7.313-54.412,3.997-81.96C150.842,230.37,150.959,228.865,150.94,227.375z"/>
	<path fill-rule="evenodd" clip-rule="evenodd" fill="#79448D" d="M486.777,432.188c0.813-16.666,4.818-32.484,12.673-47.031
		c-0.669-1.719-2.19-1.843-3.286-2.513c-6.352-3.885-8.867-8.926-5.071-15.087c9.387-15.229,7.229-30.485,3.184-46.632
		c-6.388-25.5-7.551-51.655-6.356-77.831c0.515-11.261,3.021-22.34,6.349-33.179c0.984-3.205,2.041-5.837,6.011-6.183
		c1.292-0.112,2.481-1.403,3.489-2.016c0.005-1.855-1.12-2.472-1.909-3.257c-4.602-4.581-5.752-9.965-3.757-16.051
		c1.917-5.845,4.2-11.584,5.826-17.506c1.913-6.968,2.858-13.842-5.122-18.329c-2.255-1.268-1.485-3.427-0.24-5.604
		c4.057-7.091,3.464-14.322-0.067-21.476c-1.493-3.027-4.063-4.16-7.271-4.442c-3.268-0.288-4.274,1.982-5.266,4.333
		c-2.038,4.833-6.015,4.73-10.086,3.726c-2.387-0.589-4.613-1.827-6.913-2.773c2.074-1.643,3.738,0.271,5.444,0.801
		c4.813,1.496,8.647,1.512,10.858-4.136c1.217-3.108,4.146-4.112,7.463-3.583c1.785,0.285,3.566,0.593,5.349,0.89
		c5.944,5.104,8.135,16.645,4.791,25.409c-0.47,1.229-1.105,2.396-1.853,3.996c9.745,6.525,8.208,15.571,5.155,24.867
		c-1.088,3.316-2.191,6.651-3.619,9.829c-3.793,8.44-3.37,15.873,4.931,21.424c-1.542,5.07-5.689,6.05-9.675,7.322
		c-3.706,10.469-5.917,21.182-6.633,32.167c-2.092,32.143,1.007,63.781,9.242,94.944c2.558,9.68,1.77,19.155-3.653,27.919
		c-0.698,1.126-1.212,2.371-1.768,3.58c-4.064,8.843-3.221,11.269,5.561,15.667c1.096,0.548,2.022,1.114,2.621,2.907
		c-5.735,10.063-10.085,21.136-12.181,33.011c-2.581,5.869-2.808,12.203-2.929,18.388c-0.337,17.096-0.178,34.2-0.27,51.302
		c-0.01,1.754,0.695,3.676-0.799,5.225c-0.043-1.954-0.085-3.908-0.128-5.863C486.842,468.33,486.81,450.259,486.777,432.188z"/>
	<path fill-rule="evenodd" clip-rule="evenodd" fill="#845397" d="M498.078,114.311c-1.782-0.297-3.563-0.605-5.349-0.89
		c-3.317-0.529-6.246,0.475-7.463,3.583c-2.211,5.647-6.045,5.631-10.858,4.136c-1.706-0.53-3.37-2.444-5.444-0.801
		c-1.699-0.646-3.444-1.191-5.089-1.955c-6.989-3.242-13.196-1.696-19.16,2.697c-3.695,2.721-7.287,5.968-12.247,5.45
		c-2.477-1.189-2.086-3.876-3.611-5.843c-5.203,1.57-9.401,4.847-13.394,8.21c-6.577,5.54-13.264,7.446-22.029,4.969
		c-13.884-3.923-28.171-6.299-42.602-7.675c-7.963-0.759-15.239,1.15-22.138,4.619c-4.887,2.457-9.363,2.569-14.133-0.006
		c-2.459-1.328-5.136-2.25-7.715-3.355c1.14-0.594,0.273-1.308,0.119-1.979c0.489,0.043,1.083-0.079,1.454,0.154
		c9.293,5.835,18.351,4.536,27.57-0.417c5.044-2.71,10.722-1.94,16.2-1.45c15.131,1.354,29.972,4.457,44.567,8.468
		c5.628,1.546,9.595-0.001,13.732-3.157c3.834-2.924,7.756-5.744,11.755-8.437c2.459-1.655,5.099-3.099,8.039-2.876
		c2.385,1.33,1.62,4.227,3.618,5.684c2.654,0.506,4.594-1.226,6.454-2.812c8.859-7.556,18.337-8.671,28.687-3.239
		c2.48,1.303,5.212,2.236,7.931,2.945c2.713,0.708,5.021,0.365,6.604-2.757C487.056,110.709,490.909,109.979,498.078,114.311z"/>
	<path fill-rule="evenodd" clip-rule="evenodd" fill="#A07AAE" d="M487.001,492.265c1.494-1.549,0.789-3.471,0.799-5.225
		c0.092-17.102-0.067-34.206,0.27-51.302c0.121-6.185,0.348-12.519,2.929-18.388c-2.741,21.005-2.077,42.123-2.153,63.219
		c-0.063,17.705,2.184,34.821,11.941,50.204c2.672,4.212,3.467,8.783,2.342,13.849c-1.169,5.266,0.03,10.035,3.847,14.298
		c5.39,6.021,5.377,11.246,0.695,18.037c-1.314,1.906-2.887,3.692-2.783,6.229c-2.105-2.408-0.22-4.319,0.854-6.257
		c4.598-8.296,4.399-10.75-1.423-17.851c-3.196-3.897-4.693-8.28-3.728-13.396c1.051-5.563,0.243-10.722-2.771-15.729
		C490.862,518.398,486.539,505.994,487.001,492.265z"/>
	<path fill-rule="evenodd" clip-rule="evenodd" fill="#845397" d="M303.143,124.284c-3.805-0.011-7.61-0.022-11.417-0.033
		C295.534,123.275,299.34,123.103,303.143,124.284z"/>
	<path fill-rule="evenodd" clip-rule="evenodd" fill="#7E4B91" d="M485.944,621.313c-0.236,0.555-0.473,1.11-0.898,2.11
		c-1.029-1.416-1.774-2.441-2.587-3.56c-0.426,0.221-0.957,0.332-1.221,0.659c-2.816,3.475-5.365,7.195-8.43,10.43
		c-4.463,4.708-9.334,4.525-13.839-0.197c-1.364-1.432-2.514-3.093-3.622-4.742c-4.949-7.364-8.151-8.679-16.783-7.111
		c-4.118,0.748-8.384,1.216-12.064-1.376c-8.146-5.735-17.48-7.604-27.077-8.928c-12.337-1.703-24.617-3.524-37.12-1.356
		c-5.483,0.95-10.469,3.115-15.515,5.193c-12.262,5.049-16.815,3.932-25.098-6.544c-1.316,1.425-2.635,2.815-3.914,4.24
		c-4.805,5.354-10.762,6.952-17.125,3.82c-19.197-9.447-39.049-9.011-59.275-4.755c-0.476,0.101-0.995-0.003-1.494-0.013
		c-0.815-1.104-2.089-0.729-3.167-0.985c20.729-4.418,41.272-6.897,61.464,2.828c9.756,4.7,14.157,3.115,20.893-5.658
		c0.729-0.95,1.422-1.831,2.699-1.948c2.292,0.542,2.843,2.712,4.03,4.228c3.782,4.822,8.396,6.62,14.505,4.917
		c7.212-2.011,13.678-6.032,21.175-7.293c15.247-2.563,30.151-0.015,45.093,2.492c6.634,1.112,12.966,2.919,18.514,6.92
		c3.936,2.838,8.386,3.086,12.913,2.102c8.764-1.904,15.058,0.977,19.743,8.74c5.103,8.458,10.028,8.465,16.136,0.745
		c2.437-3.079,4.113-6.864,7.682-8.747C484.177,617.709,485.188,619.368,485.944,621.313z"/>
	<path fill-rule="evenodd" clip-rule="evenodd" fill="#A07AAE" d="M486.777,432.188c0.032,18.071,0.064,36.143,0.096,54.214
		c-1.588-4.477-0.886-9.144-0.906-13.702C485.907,459.192,485.145,445.662,486.777,432.188z"/>
	<path fill-rule="evenodd" clip-rule="evenodd" fill="#845397" d="M291.976,126.215c3.671-1.378,7.334-1.46,10.988,0.064
		C299.301,126.258,295.639,126.237,291.976,126.215z"/>
</g>
</svg>
