<?xml version="1.0" encoding="utf-8"?>
<!-- Generator: Adobe Illustrator 16.0.0, SVG Export Plug-In . SVG Version: 6.00 Build 0)  -->
<!DOCTYPE svg PUBLIC "-//W3C//DTD SVG 1.1//EN" "http://www.w3.org/Graphics/SVG/1.1/DTD/svg11.dtd">
<svg version="1.1" id="Layer_1" xmlns="http://www.w3.org/2000/svg" xmlns:xlink="http://www.w3.org/1999/xlink" x="0px" y="0px"
	 width="612px" height="792px" viewBox="0 0 612 792" enable-background="new 0 0 612 792" xml:space="preserve">
<g>
	<path fill-rule="evenodd" clip-rule="evenodd" fill="#FFFFFF" d="M498.08,114.31c-7.17-4.33-11.02-3.6-14.5,3.26
		c-1.58,3.12-3.89,3.46-6.6,2.76c-2.72-0.71-5.45-1.64-7.93-2.94c-10.35-5.43-19.83-4.32-28.69,3.24c-1.86,1.59-3.8,3.32-6.45,2.81
		c-2-1.46-1.23-4.35-3.62-5.68c-2.94-0.22-5.58,1.22-8.04,2.88c-4,2.69-7.92,5.51-11.75,8.44c-4.14,3.16-8.1,4.7-13.73,3.16
		c-14.6-4.01-29.44-7.11-44.57-8.47c-5.48-0.49-11.16-1.26-16.2,1.45c-9.22,4.95-18.28,6.25-27.57,0.42
		c-0.37-0.23-0.96-0.11-1.45-0.15c-1.27-0.39-2.55-0.79-3.82-1.18c-3.8-1.18-7.61-1.01-11.42-0.03c-11.7,1.82-23.8,2-34.97,6.02
		c-12.21,4.39-22.35,3.09-31.66-6.3c-3.13-3.16-7.33-5.69-12.48-5.75c-0.87,2.1-1.67,4.03-2.55,6.15c-3.53-0.32-6.16-2.05-8.56-4.08
		c-8.02-6.81-16.6-7.67-25.94-2.93c-3.1,1.57-6.27,3.12-9.78,3.66c-2.64,0.41-5.07,0.2-6.22-2.73c-1.36-3.48-3.14-6.24-7.55-5.83
		c-4.6,0.43-8.19,1.98-10.22,6.63c-3.7,8.47-3.37,16.69,0.98,25.03c-8.71,5.16-8.67,12.86-6.38,21.11c0.89,3.2,1.95,6.37,3.22,9.44
		c3.85,9.34,7.4,18.57-3.95,25.31c2.54,4.53,6.15,6.01,9.96,6.9c2.69,6.77,4.09,13.6,5.29,20.48c0.02,1.49-0.1,3,0.08,4.47
		c3.32,27.55,0.81,54.83-4,81.96c-1.51,8.51-4.02,16.83-5.76,25.3c-2.16,10.5,2.41,19.48,6.81,28.53c3.04,6.25,1.87,9.55-4.48,12.4
		c-4.23,1.9-5.04,3.97-2.73,8.04c6.43,11.3,9.77,23.65,11.23,36.48c2.17,19.09,0.71,38.27,1.1,57.41
		c0.35,16.98-2.46,33.17-11.55,47.84c-2.78,4.49-3.4,9.3-2.63,14.4c0.84,5.54-0.24,10.3-4.2,14.72c-5.16,5.77-5.15,11.82-0.43,18.22
		c2.14,2.9,2.91,5.81,2.71,9.27c-0.42,7.31-2.38,14.45-2.23,21.83c0.22,10.62,5.6,16.74,16.15,17.98c3.58,0.42,7.21,0.73,10.49-0.94
		c2.19,2.73,4.03,5.32,6.17,7.61c5.54,5.92,13.13,5.98,18.87,0.15c1.62-1.64,3.05-3.55,4.21-5.53c3-5.11,7.17-7.13,13.01-5.72
		c6.49,1.56,12.54,0.51,18.07-3.3c4.32-2.98,9.01-4.81,14.29-5.4c4.44-0.5,8.8-1.67,13.23-2.28c15.64-2.18,31.08-2.9,45.92,4.43
		c9.39,4.64,18.68,5.04,26.1-3.99c9.85,7.7,12.19,9.65,28.14,3.1c1.69-0.69,3.37-1.42,5.08-2.08c14.44-5.52,29.16-3.6,43.85-1.55
		c9.2,1.29,18.33,2.71,26.27,8.38c4.07,2.91,9.13,2.74,14,1.82c8.05-1.52,10.42-0.5,15.03,6.41c0.92,1.38,1.85,2.78,2.96,4.01
		c5.74,6.36,12.57,6.34,18.62,0.29c2.49-2.49,3.4-6.15,6.39-8.18c11.79,6.13,25.27-1.99,25.47-15.2c0.12-7.69-1.78-15.16-2.3-22.78
		c0-0.76,0.01-1.52,0.01-2.28c-0.1-2.54,1.47-4.32,2.78-6.23c4.68-6.79,4.69-12.02-0.7-18.04c-3.82-4.26-5.02-9.03-3.85-14.3
		c1.13-5.07,0.33-9.64-2.34-13.85c-9.76-15.38-12-32.5-11.94-50.2c0.08-21.1-0.59-42.21,2.15-63.22
		c2.09-11.88,6.44-22.95,12.18-33.01c-0.6-1.79-1.53-2.36-2.62-2.91c-8.78-4.4-9.63-6.82-5.56-15.67c0.56-1.21,1.07-2.45,1.77-3.58
		c5.42-8.76,6.21-18.24,3.65-27.92c-8.24-31.16-11.33-62.8-9.24-94.94c0.72-10.98,2.93-21.7,6.63-32.17
		c3.99-1.27,8.13-2.25,9.67-7.32c-8.3-5.55-8.72-12.98-4.93-21.42c1.43-3.18,2.53-6.51,3.62-9.83c3.05-9.3,4.59-18.34-5.16-24.87
		c0.75-1.6,1.38-2.77,1.85-4C506.21,130.96,504.02,119.41,498.08,114.31z"/>
	<path fill-rule="evenodd" clip-rule="evenodd" fill="#F4ECE1" d="M504.89,583.19c0,0.76-0.01,1.52-0.01,2.28
		c-1.63,2.27-1.03,4.92-0.64,7.23c0.96,5.64,0.83,11.27,0.66,16.91c-0.34,10.96-12.38,15.35-18.95,11.71
		c-0.76-1.94-1.77-3.6-4.38-3.79c-3.57,1.88-5.25,5.67-7.68,8.75c-6.11,7.72-11.03,7.71-16.14-0.75
		c-4.69-7.76-10.98-10.64-19.74-8.74c-4.53,0.98-8.98,0.74-12.91-2.1c-5.55-4-11.88-5.81-18.51-6.92
		c-14.94-2.51-29.85-5.06-45.09-2.49c-7.5,1.26-13.96,5.28-21.17,7.29c-6.11,1.7-10.72-0.09-14.5-4.92
		c-1.19-1.52-1.74-3.69-4.03-4.23c-1.28,0.12-1.97,1-2.7,1.95c-6.74,8.77-11.14,10.36-20.89,5.66c-20.19-9.73-40.74-7.25-61.46-2.83
		c-5.79,0.21-11.09,1.88-16,4.99c-3.97,2.52-8.19,5.06-13.08,3.81c-10.48-2.69-17.93,0.45-23.54,9.87
		c-3.81,6.4-8.94,6.01-13.59,0.04c-2.53-3.25-4.13-7.24-7.43-9.71c-1.97-0.31-3.51,0.24-4.93,1.17c-7.12,4.67-16.56,0.02-17.1-8.41
		c-0.38-6.04,0.71-11.95,1.57-17.88c0.97-6.74,1.09-13.16-3.69-18.92c-3.31-3.98-2.13-8.23,1.25-11.7c4.76-4.9,6-10.92,4.68-17.12
		c-1.08-5.05,0.18-9.15,2.39-13.35c3.8-7.21,7.62-14.38,9.14-22.57c2.66-14.36,2.47-28.85,2.34-43.34
		c-0.16-17.31,0.16-34.66-3.51-51.74c-2.14-9.94-5.94-19.26-10.41-28.23c10.93-7.86,11.75-11.43,5.62-23.14
		c-0.23-0.44-0.46-0.89-0.71-1.32c-4.46-7.34-5.67-15.25-3.87-23.57c3.77-17.39,7.59-34.73,8.92-52.57
		c1.76-23.69,2.25-47.24-3.75-70.48c-1.34-5.2-2-11.11-9.28-11.74c-0.53-0.05-1-0.79-2.01-1.65c8.73-6.83,7.44-15.21,3.88-23.97
		c-1.44-3.54-2.69-7.18-3.79-10.84c-3.18-10.56-2.44-12.89,5.83-19.61c0.57-1.98,0.65-3.87-0.5-5.76
		c-2.67-4.39-2.84-9.37-1.86-14.07c1.34-6.46,3.37-11.83,11.22-9.76c5.55,9.25,8.09,10.1,18.08,6.06c0.62-0.25,1.26-0.46,1.83-0.79
		c9.45-5.54,17.98-4.7,26.66,2.34c7.15,5.8,9.19,5.1,14.91-1.78c6.74,3.26,12.21,8.52,18.53,12.48c3.06,1.92,5.94,2.77,9.83,1.78
		c15.77-4.02,31.51-8.23,47.67-10.5c3.66,0.02,7.33,0.04,10.99,0.06c1.12,0.96,2.45,1.23,3.88,1.17c2.58,1.1,5.26,2.03,7.72,3.36
		c4.77,2.58,9.25,2.46,14.13,0.01c6.9-3.47,14.17-5.38,22.14-4.62c14.43,1.38,28.72,3.75,42.6,7.67c8.77,2.48,15.45,0.57,22.03-4.97
		c3.99-3.36,8.19-6.64,13.39-8.21c1.53,1.97,1.13,4.65,3.61,5.84c4.96,0.52,8.55-2.73,12.25-5.45c5.96-4.39,12.17-5.94,19.16-2.7
		c1.64,0.76,3.39,1.31,5.09,1.95c2.3,0.95,4.53,2.18,6.91,2.77c4.07,1,8.05,1.11,10.09-3.73c0.99-2.35,2-4.62,5.27-4.33
		c3.21,0.28,5.78,1.42,7.27,4.44c3.53,7.15,4.12,14.39,0.07,21.48c-1.25,2.18-2.01,4.34,0.24,5.6c7.98,4.49,7.04,11.36,5.12,18.33
		c-1.63,5.92-3.91,11.66-5.83,17.51c-2,6.09-0.84,11.47,3.76,16.05c0.79,0.78,1.91,1.4,1.91,3.26c-1.01,0.61-2.2,1.9-3.49,2.02
		c-3.97,0.35-5.03,2.98-6.01,6.18c-3.33,10.84-5.83,21.92-6.35,33.18c-1.19,26.18-0.03,52.33,6.36,77.83
		c4.04,16.15,6.2,31.4-3.18,46.63c-3.8,6.16-1.28,11.2,5.07,15.09c1.1,0.67,2.62,0.79,3.29,2.51
		c-7.85,14.55-11.86,30.36-12.67,47.03c-1.63,13.47-0.87,27-0.81,40.51c0.02,4.56-0.68,9.23,0.91,13.7
		c0.04,1.96,0.08,3.91,0.13,5.86c-0.46,13.73,3.86,26.13,10.82,37.69c3.01,5.01,3.82,10.17,2.77,15.73
		c-0.97,5.12,0.53,9.5,3.73,13.4c5.82,7.1,6.02,9.55,1.42,17.85C504.67,578.87,502.78,580.78,504.89,583.19z"/>
	<path fill-rule="evenodd" clip-rule="evenodd" fill="#743E8A" d="M306.85,127.45c-1.43,0.06-2.76-0.21-3.88-1.17
		c-3.65-1.52-7.32-1.44-10.99-0.06c-16.16,2.28-31.9,6.48-47.67,10.5c-3.88,0.99-6.77,0.14-9.83-1.78
		c-6.32-3.96-11.79-9.22-18.53-12.48c-5.72,6.88-7.76,7.58-14.91,1.78c-8.67-7.03-17.21-7.88-26.66-2.34
		c-0.57,0.33-1.22,0.54-1.83,0.79c-9.99,4.05-12.53,3.19-18.08-6.06c-7.85-2.07-9.88,3.29-11.22,9.76
		c-0.98,4.71-0.81,9.68,1.86,14.07c1.15,1.89,1.07,3.78,0.5,5.76c-8.27,6.72-9,9.05-5.83,19.61c1.1,3.66,2.35,7.3,3.79,10.84
		c3.56,8.76,4.85,17.14-3.88,23.97c1.02,0.86,1.48,1.6,2.01,1.65c7.28,0.63,7.94,6.55,9.28,11.74c5.99,23.23,5.51,46.78,3.75,70.48
		c-1.33,17.84-5.15,35.18-8.92,52.57c-1.8,8.31-0.59,16.23,3.87,23.57c0.26,0.43,0.48,0.88,0.71,1.32
		c6.13,11.7,5.31,15.28-5.62,23.14c4.47,8.97,8.28,18.29,10.41,28.23c3.67,17.08,3.35,34.43,3.51,51.74
		c0.14,14.48,0.32,28.98-2.34,43.34c-1.52,8.19-5.33,15.35-9.14,22.57c-2.21,4.2-3.47,8.29-2.39,13.35
		c1.33,6.2,0.09,12.22-4.68,17.12c-3.38,3.47-4.56,7.72-1.25,11.7c4.79,5.76,4.67,12.18,3.69,18.92
		c-0.86,5.93-1.95,11.83-1.57,17.88c0.54,8.43,9.98,13.08,17.1,8.41c1.42-0.93,2.97-1.48,4.93-1.17c3.29,2.47,4.89,6.46,7.43,9.71
		c4.65,5.97,9.77,6.36,13.59-0.04c5.61-9.42,13.06-12.56,23.54-9.87c4.89,1.25,9.11-1.29,13.08-3.81c4.91-3.12,10.21-4.78,16-4.99
		c1.08,0.26,2.35-0.12,3.17,0.99c-6.89,1.05-13.68,2.19-19.66,6.36c-4.61,3.22-9.71,4.47-15.6,3.07
		c-7.09-1.68-13.21,0.21-16.79,7.31c-0.45,0.89-1.03,1.72-1.64,2.5c-5.8,7.55-12.71,7.39-18.34-0.3c-2.12-2.9-3.45-6.46-6.63-8.56
		c-1.88,0.79-2.21,3-4.12,3.63c-6.01,1.96-16-3.07-18.13-9.22c-2.3-6.63-0.18-13.15,0.5-19.7c0.72-6.92,1.71-13.67-2.96-20.06
		c-3.74-5.12-3.07-9.48,1.2-13.98c4.27-4.5,5.52-9.45,4.45-15.49c-0.88-4.97-0.26-9.76,2.59-14.36
		c7.99-12.92,11.07-27.28,11.19-42.32c0.11-14.99,0.26-29.99-0.08-44.98c-0.25-10.77-1.33-21.5-3.88-32.06
		c-2.31-9.56-6.4-18.39-10.7-27.3c1.53-0.79,2.71-1.37,3.87-2c5.89-3.19,7.48-7.4,5.11-13.72c-0.76-2.02-1.4-4.18-2.61-5.92
		c-5.82-8.32-5.83-17.57-4.03-26.85c2.81-14.48,7.01-28.68,8.14-43.5c1.11-14.6,2.96-29.19,1.93-43.82
		c-0.48-6.84-0.03-13.93-2.75-20.52c-1.2-6.88-2.6-13.72-5.29-20.48c-3.81-0.89-7.42-2.37-9.96-6.9c11.35-6.74,7.8-15.97,3.95-25.31
		c-1.27-3.07-2.33-6.24-3.22-9.44c-2.29-8.25-2.33-15.95,6.38-21.11c-4.35-8.34-4.68-16.56-0.98-25.03
		c2.03-4.65,5.62-6.2,10.22-6.63c4.41-0.41,6.19,2.35,7.55,5.83c1.14,2.93,3.57,3.14,6.22,2.73c3.51-0.54,6.68-2.09,9.78-3.66
		c9.34-4.75,17.92-3.89,25.94,2.93c2.39,2.03,5.02,3.76,8.56,4.08c0.88-2.12,1.68-4.05,2.55-6.15c5.15,0.05,9.35,2.59,12.48,5.75
		c9.31,9.39,19.45,10.69,31.66,6.3c11.17-4.02,23.27-4.21,34.97-6.02c3.81,0.01,7.61,0.02,11.42,0.03c1.27,0.4,2.55,0.79,3.82,1.18
		C307.12,126.14,307.99,126.85,306.85,127.45z"/>
	<path fill-rule="evenodd" clip-rule="evenodd" fill="#A07AAE" d="M150.94,227.38c2.72,6.59,2.27,13.68,2.75,20.52
		c1.03,14.63-0.82,29.22-1.93,43.82c-1.13,14.83-5.33,29.02-8.14,43.5c-1.8,9.28-1.79,18.53,4.03,26.85
		c1.21,1.74,1.86,3.9,2.61,5.92c2.37,6.32,0.78,10.53-5.11,13.72c-1.16,0.63-2.34,1.21-3.87,2c4.3,8.92,8.4,17.74,10.7,27.3
		c2.55,10.56,3.63,21.29,3.88,32.06c0.34,14.99,0.2,29.99,0.08,44.98c-0.12,15.04-3.19,29.4-11.19,42.32
		c-2.84,4.59-3.47,9.39-2.59,14.36c1.07,6.04-0.18,10.99-4.45,15.49c-4.27,4.5-4.93,8.86-1.2,13.98c4.67,6.4,3.68,13.14,2.96,20.06
		c-0.69,6.56-2.8,13.07-0.5,19.7c2.13,6.15,12.12,11.17,18.13,9.22c1.91-0.62,2.24-2.83,4.12-3.63c3.17,2.1,4.5,5.66,6.63,8.56
		c5.63,7.68,12.53,7.84,18.34,0.3c0.61-0.79,1.19-1.62,1.64-2.5c3.58-7.09,9.7-8.99,16.79-7.31c5.9,1.4,10.99,0.15,15.6-3.07
		c5.98-4.17,12.76-5.31,19.66-6.36c0.5,0.01,1.02,0.11,1.49,0.01c20.23-4.26,40.08-4.69,59.27,4.75c6.36,3.13,12.32,1.53,17.13-3.82
		c1.28-1.42,2.6-2.82,3.91-4.24c8.28,10.48,12.84,11.59,25.1,6.54c5.05-2.08,10.03-4.24,15.51-5.19c12.5-2.17,24.78-0.35,37.12,1.36
		c9.6,1.32,18.93,3.19,27.08,8.93c3.68,2.59,7.95,2.12,12.06,1.38c8.63-1.57,11.83-0.25,16.78,7.11c1.11,1.65,2.26,3.31,3.62,4.74
		c4.5,4.72,9.38,4.91,13.84,0.2c3.06-3.23,5.61-6.96,8.43-10.43c0.26-0.33,0.79-0.44,1.22-0.66c0.81,1.12,1.56,2.14,2.59,3.56
		c0.43-1,0.66-1.56,0.9-2.11c6.58,3.64,18.62-0.75,18.95-11.71c0.17-5.64,0.31-11.27-0.66-16.91c-0.4-2.31-0.99-4.96,0.64-7.23
		c0.53,7.62,2.42,15.09,2.3,22.78c-0.2,13.21-13.68,21.33-25.47,15.2c-2.99,2.03-3.9,5.69-6.39,8.18
		c-6.05,6.06-12.88,6.07-18.62-0.29c-1.11-1.23-2.03-2.63-2.96-4.01c-4.61-6.9-6.98-7.92-15.03-6.41c-4.87,0.92-9.94,1.08-14-1.82
		c-7.94-5.67-17.07-7.1-26.27-8.38c-14.69-2.05-29.41-3.97-43.85,1.55c-1.71,0.65-3.38,1.38-5.08,2.08
		c-15.95,6.55-18.3,4.6-28.14-3.1c-7.43,9.03-16.71,8.63-26.1,3.99c-14.84-7.33-30.27-6.61-45.92-4.43
		c-4.43,0.62-8.79,1.79-13.23,2.28c-5.28,0.59-9.97,2.43-14.29,5.4c-5.53,3.81-11.59,4.87-18.07,3.3
		c-5.84-1.41-10.01,0.61-13.01,5.72c-1.17,1.99-2.6,3.89-4.21,5.53c-5.74,5.83-13.32,5.77-18.87-0.15
		c-2.15-2.29-3.98-4.88-6.17-7.61c-3.28,1.67-6.91,1.36-10.49,0.94c-10.55-1.24-15.94-7.36-16.15-17.98
		c-0.15-7.37,1.81-14.52,2.23-21.83c0.2-3.46-0.58-6.38-2.71-9.27c-4.72-6.4-4.73-12.45,0.43-18.22c3.96-4.43,5.04-9.18,4.2-14.72
		c-0.77-5.11-0.16-9.92,2.63-14.4c9.09-14.67,11.9-30.86,11.55-47.84c-0.39-19.14,1.06-38.32-1.1-57.41
		c-1.46-12.83-4.8-25.18-11.23-36.48c-2.31-4.07-1.5-6.13,2.73-8.04c6.35-2.86,7.52-6.15,4.48-12.4c-4.4-9.05-8.97-18.03-6.81-28.53
		c1.74-8.47,4.25-16.8,5.76-25.3c4.81-27.13,7.31-54.41,4-81.96C150.84,230.37,150.96,228.86,150.94,227.38z"/>
	<path fill-rule="evenodd" clip-rule="evenodd" fill="#79448D" d="M486.78,432.19c0.81-16.67,4.82-32.48,12.67-47.03
		c-0.67-1.72-2.19-1.84-3.29-2.51c-6.35-3.89-8.87-8.93-5.07-15.09c9.39-15.23,7.23-30.49,3.18-46.63
		c-6.39-25.5-7.55-51.66-6.36-77.83c0.51-11.26,3.02-22.34,6.35-33.18c0.98-3.21,2.04-5.84,6.01-6.18c1.29-0.11,2.48-1.4,3.49-2.02
		c0-1.85-1.12-2.47-1.91-3.26c-4.6-4.58-5.75-9.97-3.76-16.05c1.92-5.85,4.2-11.58,5.83-17.51c1.91-6.97,2.86-13.84-5.12-18.33
		c-2.25-1.27-1.49-3.43-0.24-5.6c4.06-7.09,3.46-14.32-0.07-21.48c-1.49-3.03-4.06-4.16-7.27-4.44c-3.27-0.29-4.27,1.98-5.27,4.33
		c-2.04,4.83-6.01,4.73-10.09,3.73c-2.39-0.59-4.61-1.83-6.91-2.77c2.07-1.64,3.74,0.27,5.44,0.8c4.81,1.5,8.65,1.51,10.86-4.14
		c1.22-3.11,4.15-4.11,7.46-3.58c1.79,0.28,3.57,0.59,5.35,0.89c5.94,5.1,8.13,16.65,4.79,25.41c-0.47,1.23-1.11,2.4-1.85,4
		c9.75,6.52,8.21,15.57,5.16,24.87c-1.09,3.32-2.19,6.65-3.62,9.83c-3.79,8.44-3.37,15.87,4.93,21.42
		c-1.54,5.07-5.69,6.05-9.67,7.32c-3.71,10.47-5.92,21.18-6.63,32.17c-2.09,32.14,1.01,63.78,9.24,94.94
		c2.56,9.68,1.77,19.16-3.65,27.92c-0.7,1.13-1.21,2.37-1.77,3.58c-4.06,8.84-3.22,11.27,5.56,15.67c1.1,0.55,2.02,1.11,2.62,2.91
		c-5.74,10.06-10.08,21.14-12.18,33.01c-2.58,5.87-2.81,12.2-2.93,18.39c-0.34,17.1-0.18,34.2-0.27,51.3
		c-0.01,1.75,0.7,3.68-0.8,5.22c-0.04-1.95-0.08-3.91-0.13-5.86C486.84,468.33,486.81,450.26,486.78,432.19z"/>
	<path fill-rule="evenodd" clip-rule="evenodd" fill="#845397" d="M498.08,114.31c-1.78-0.3-3.56-0.61-5.35-0.89
		c-3.32-0.53-6.25,0.47-7.46,3.58c-2.21,5.65-6.04,5.63-10.86,4.14c-1.71-0.53-3.37-2.44-5.44-0.8c-1.7-0.65-3.44-1.19-5.09-1.95
		c-6.99-3.24-13.2-1.7-19.16,2.7c-3.7,2.72-7.29,5.97-12.25,5.45c-2.48-1.19-2.09-3.88-3.61-5.84c-5.2,1.57-9.4,4.85-13.39,8.21
		c-6.58,5.54-13.26,7.45-22.03,4.97c-13.88-3.92-28.17-6.3-42.6-7.67c-7.96-0.76-15.24,1.15-22.14,4.62
		c-4.89,2.46-9.36,2.57-14.13-0.01c-2.46-1.33-5.14-2.25-7.72-3.36c1.14-0.59,0.27-1.31,0.12-1.98c0.49,0.04,1.08-0.08,1.45,0.15
		c9.29,5.84,18.35,4.54,27.57-0.42c5.04-2.71,10.72-1.94,16.2-1.45c15.13,1.35,29.97,4.46,44.57,8.47c5.63,1.55,9.59,0,13.73-3.16
		c3.83-2.92,7.76-5.74,11.75-8.44c2.46-1.65,5.1-3.1,8.04-2.88c2.38,1.33,1.62,4.23,3.62,5.68c2.65,0.51,4.59-1.23,6.45-2.81
		c8.86-7.56,18.34-8.67,28.69-3.24c2.48,1.3,5.21,2.24,7.93,2.94c2.71,0.71,5.02,0.37,6.6-2.76
		C487.06,110.71,490.91,109.98,498.08,114.31z"/>
	<path fill-rule="evenodd" clip-rule="evenodd" fill="#A07AAE" d="M487,492.26c1.49-1.55,0.79-3.47,0.8-5.22
		c0.09-17.1-0.07-34.21,0.27-51.3c0.12-6.18,0.35-12.52,2.93-18.39c-2.74,21-2.08,42.12-2.15,63.22
		c-0.06,17.71,2.18,34.82,11.94,50.2c2.67,4.21,3.47,8.78,2.34,13.85c-1.17,5.27,0.03,10.04,3.85,14.3
		c5.39,6.02,5.38,11.25,0.7,18.04c-1.31,1.91-2.89,3.69-2.78,6.23c-2.11-2.41-0.22-4.32,0.85-6.26c4.6-8.3,4.4-10.75-1.42-17.85
		c-3.2-3.9-4.69-8.28-3.73-13.4c1.05-5.56,0.24-10.72-2.77-15.73C490.86,518.4,486.54,505.99,487,492.26z"/>
	<path fill-rule="evenodd" clip-rule="evenodd" fill="#845397" d="M303.14,124.28c-3.81-0.01-7.61-0.02-11.42-0.03
		C295.53,123.28,299.34,123.1,303.14,124.28z"/>
	<path fill-rule="evenodd" clip-rule="evenodd" fill="#7E4B91" d="M485.94,621.31c-0.24,0.55-0.47,1.11-0.9,2.11
		c-1.03-1.42-1.77-2.44-2.59-3.56c-0.43,0.22-0.96,0.33-1.22,0.66c-2.82,3.47-5.37,7.2-8.43,10.43c-4.46,4.71-9.33,4.53-13.84-0.2
		c-1.36-1.43-2.51-3.09-3.62-4.74c-4.95-7.36-8.15-8.68-16.78-7.11c-4.12,0.75-8.38,1.22-12.06-1.38
		c-8.15-5.74-17.48-7.6-27.08-8.93c-12.34-1.7-24.62-3.52-37.12-1.36c-5.48,0.95-10.47,3.12-15.51,5.19
		c-12.26,5.05-16.82,3.93-25.1-6.54c-1.32,1.42-2.63,2.82-3.91,4.24c-4.8,5.35-10.76,6.95-17.13,3.82
		c-19.2-9.45-39.05-9.01-59.27-4.75c-0.48,0.1-0.99,0-1.49-0.01c-0.82-1.1-2.09-0.73-3.17-0.99c20.73-4.42,41.27-6.9,61.46,2.83
		c9.76,4.7,14.16,3.12,20.89-5.66c0.73-0.95,1.42-1.83,2.7-1.95c2.29,0.54,2.84,2.71,4.03,4.23c3.78,4.82,8.4,6.62,14.5,4.92
		c7.21-2.01,13.68-6.03,21.17-7.29c15.25-2.56,30.15-0.01,45.09,2.49c6.63,1.11,12.97,2.92,18.51,6.92
		c3.94,2.84,8.39,3.09,12.91,2.1c8.76-1.9,15.06,0.98,19.74,8.74c5.1,8.46,10.03,8.46,16.14,0.75c2.44-3.08,4.11-6.86,7.68-8.75
		C484.18,617.71,485.19,619.37,485.94,621.31z"/>
	<path fill-rule="evenodd" clip-rule="evenodd" fill="#A07AAE" d="M486.78,432.19c0.03,18.07,0.06,36.14,0.1,54.21
		c-1.59-4.48-0.89-9.14-0.91-13.7C485.91,459.19,485.14,445.66,486.78,432.19z"/>
	<path fill-rule="evenodd" clip-rule="evenodd" fill="#845397" d="M291.98,126.22c3.67-1.38,7.33-1.46,10.99,0.06
		C299.3,126.26,295.64,126.24,291.98,126.22z"/>
</g>
</svg>
